<svg width="154" height="152" viewBox="0 0 154 152" fill="none" xmlns="http://www.w3.org/2000/svg">
<path d="M112.372 127.247V105.951L119.471 103.112L126.215 105.596V109.855H139.703V123.343H126.215C126.215 124.526 126.073 127.176 125.505 128.312C124.937 129.448 123.849 129.969 123.375 130.087H114.502C113.366 130.087 112.609 128.194 112.372 127.247Z" fill="white"/>
<path d="M13.346 151.736V88.9116H38.5467V140.733L13.346 151.736Z" fill="white"/>
<path d="M38.5467 59.4516H4.11761C3.88099 59.4516 3.19477 59.5936 2.34291 60.1615C1.49106 60.7294 1.04147 61.8179 0.923157 62.2912V82.8776C0.923157 84.5814 2.57954 85.2439 3.40773 85.3622H38.5467L50.6147 72.2295L38.5467 59.4516Z" fill="white"/>
<path d="M38.5467 55.9023H13.346V12.5997C13.346 11.1799 13.9849 7.77247 17.9602 4.0811C21.9356 0.389736 27.7802 0.295087 30.0282 0.886652L80.7845 22.183V123.341L64.1024 129.73V43.4794L38.5467 37.8003V55.9023Z" fill="white"/>
<path d="M112.729 39.2201V26.0873C112.847 25.6141 113.297 24.5256 114.149 23.9577C115.001 23.3898 115.924 23.2478 116.278 23.2478H121.957C122.312 23.2478 123.235 23.3898 124.087 23.9577C124.939 24.5256 125.625 25.6141 125.862 26.0873V39.2201L119.118 41.7047L112.729 39.2201Z" fill="white"/>
<path fill-rule="evenodd" clip-rule="evenodd" d="M85.0438 121.211V23.9577L109.535 33.5411V42.0596L119.828 45.2541L129.411 42.0596L153.902 51.643V93.1709L129.411 103.109L119.828 99.5598L109.535 103.109V111.273L85.0438 121.211ZM98.1766 50.5782V94.5906L112.729 91.3962V53.4177L98.1766 50.5782ZM126.217 88.9116V56.2572L140.414 59.0967V85.7172L126.217 88.9116Z" fill="white"/>
</svg>
